{
  "accessors": [
    {
      "bufferView": 2,
      "componentType": 5126,
      "count": 5174,
      "max": [
        1.0494329929351807,
        0.4035170078277588,
        3.7082769870758057
      ],
      "min": [
        -1.0494329929351807,
        -0.3859829902648926,
        0.0070940000005066395
      ],
      "type": "VEC3"
    },
    {
      "bufferView": 2,
      "byteOffset": 62088,
      "componentType": 5126,
      "count": 5174,
      "max": [
        1.0,
        0.9999843835830688,
        0.9997355341911316
      ],
      "min": [
        -1.0,
        -0.9999890327453613,
        -0.9999396800994873
      ],
      "type": "VEC3"
    },
    {
      "bufferView": 3,
      "componentType": 5126,
      "count": 5174,
      "max": [
        1.0,
        0.9999688863754272,
        0.9987959861755371,
        1.0
      ],
      "min": [
        -0.9999995231628418,
        -0.9998798966407776,
        -0.9995737075805664,
        -1.0
      ],
      "type": "VEC4"
    },
    {
      "bufferView": 1,
      "componentType": 5126,
      "count": 5174,
      "max": [
        1.9954999685287476,
        0.9975000023841858
      ],
      "min": [
        0.004699999932199717,
        0.007699999958276749
      ],
      "type": "VEC2"
    },
    {
      "bufferView": 0,
      "componentType": 5125,
      "count": 19554,
      "type": "SCALAR"
    }
  ],
  "asset": {
    "extras": {
      "author": "jettaroni10 (https://sketchfab.com/jettaroni10)",
      "license": "CC-BY-4.0 (http://creativecommons.org/licenses/by/4.0/)",
      "source": "https://sketchfab.com/3d-models/dikwrnkrt9ts-stormtrooper-ecf2ebbb6880485f936047929b33fe57",
      "title": "Dikwrnkrt9ts- Stormtrooper"
    },
    "generator": "Sketchfab-12.67.0",
    "version": "2.0"
  },
  "bufferViews": [
    {
      "buffer": 0,
      "byteLength": 78216,
      "name": "floatBufferViews",
      "target": 34963
    },
    {
      "buffer": 0,
      "byteLength": 41392,
      "byteOffset": 78216,
      "byteStride": 8,
      "name": "floatBufferViews",
      "target": 34962
    },
    {
      "buffer": 0,
      "byteLength": 124176,
      "byteOffset": 119608,
      "byteStride": 12,
      "name": "floatBufferViews",
      "target": 34962
    },
    {
      "buffer": 0,
      "byteLength": 82784,
      "byteOffset": 243784,
      "byteStride": 16,
      "name": "floatBufferViews",
      "target": 34962
    }
  ],
  "buffers": [
    {
      "byteLength": 326568,
      "uri": "scene.bin"
    }
  ],
  "images": [
    {
      "uri": "textures/Stormtrooper_baseColor.png"
    },
    {
      "uri": "textures/Stormtrooper_normal.png"
    }
  ],
  "materials": [
    {
      "doubleSided": true,
      "name": "Stormtrooper",
      "normalTexture": {
        "index": 1
      },
      "pbrMetallicRoughness": {
        "baseColorTexture": {
          "index": 0
        },
        "metallicFactor": 0.0,
        "roughnessFactor": 0.6
      }
    }
  ],
  "meshes": [
    {
      "name": "Object_0",
      "primitives": [
        {
          "attributes": {
            "NORMAL": 1,
            "POSITION": 0,
            "TANGENT": 2,
            "TEXCOORD_0": 3
          },
          "indices": 4,
          "material": 0,
          "mode": 4
        }
      ]
    }
  ],
  "nodes": [
    {
      "children": [
        1
      ],
      "matrix": [
        1.0,
        0.0,
        0.0,
        0.0,
        0.0,
        2.220446049250313e-16,
        -1.0,
        0.0,
        0.0,
        1.0,
        2.220446049250313e-16,
        0.0,
        0.0,
        0.0,
        0.0,
        1.0
      ],
      "name": "Sketchfab_model"
    },
    {
      "children": [
        2
      ],
      "name": "Stormtrooper.obj.cleaner.gles"
    },
    {
      "mesh": 0,
      "name": "Object_2"
    }
  ],
  "samplers": [
    {
      "magFilter": 9729,
      "minFilter": 9987,
      "wrapS": 10497,
      "wrapT": 10497
    }
  ],
  "scene": 0,
  "scenes": [
    {
      "name": "Sketchfab_Scene",
      "nodes": [
        0
      ]
    }
  ],
  "textures": [
    {
      "sampler": 0,
      "source": 0
    },
    {
      "sampler": 0,
      "source": 1
    }
  ]
}
