{
    "asset" : {
        "generator" : "Khronos glTF Blender I/O v3.2.43",
        "version" : "2.0"
    },
    "scene" : 0,
    "scenes" : [
        {
            "name" : "Scene",
            "nodes" : [
                0,
                1,
                2,
                3
            ]
        }
    ],
    "nodes" : [
        {
            "mesh" : 0,
            "name" : "Cube",
            "rotation" : [
                0.7209498286247253,
                0,
                0,
                0.6929872632026672
            ],
            "scale" : [
                40,
                40.000003814697266,
                40.000003814697266
            ],
            "translation" : [
                0,
                -9.882020950317383,
                9.498739242553711
            ]
        },
        {
            "mesh" : 1,
            "name" : "BezierCircle",
            "rotation" : [
                -0.050131600350141525,
                0.2521838843822479,
                0.2533702850341797,
                0.932573676109314
            ],
            "scale" : [
                40,
                40,
                40
            ],
            "translation" : [
                -31.988513946533203,
                -27.312580108642578,
                -3.8757729530334473
            ]
        },
        {
            "mesh" : 2,
            "name" : "BezierCircle.001",
            "rotation" : [
                0.20183655619621277,
                0.20140482485294342,
                -0.6785993576049805,
                0.6769055724143982
            ],
            "scale" : [
                40,
                40,
                40
            ],
            "translation" : [
                0.4528140723705292,
                27.26617431640625,
                -1.7161922454833984
            ]
        },
        {
            "mesh" : 3,
            "name" : "BezierCircle.002",
            "rotation" : [
                -0.251968115568161,
                0.05077911540865898,
                0.9319695830345154,
                0.2556683123111725
            ],
            "scale" : [
                40,
                40.000003814697266,
                40
            ],
            "translation" : [
                31.535707473754883,
                -28.09626007080078,
                -3.906778335571289
            ]
        }
    ],
    "materials" : [
        {
            "doubleSided" : true,
            "name" : "Material.001",
            "pbrMetallicRoughness" : {
                "metallicFactor" : 0,
                "roughnessFactor" : 0.5329949259757996
            }
        },
        {
            "doubleSided" : true,
            "name" : "Material.002",
            "pbrMetallicRoughness" : {
                "baseColorFactor" : [
                    0.9699286818504333,
                    0.13085800409317017,
                    0.21827837824821472,
                    1
                ],
                "metallicFactor" : 0,
                "roughnessFactor" : 0.5304570198059082
            }
        },
        {
            "doubleSided" : true,
            "name" : "Material.004",
            "pbrMetallicRoughness" : {
                "baseColorFactor" : [
                    0.6151833534240723,
                    0.6151833534240723,
                    0.6151833534240723,
                    1
                ],
                "metallicFactor" : 0.8121827244758606,
                "roughnessFactor" : 0.44923853874206543
            }
        },
        {
            "doubleSided" : true,
            "name" : "Material.003",
            "pbrMetallicRoughness" : {
                "baseColorFactor" : [
                    0.14707104861736298,
                    0.06768994778394699,
                    0.33432766795158386,
                    1
                ],
                "metallicFactor" : 0.4848484992980957,
                "roughnessFactor" : 0.5
            }
        }
    ],
    "meshes" : [
        {
            "name" : "Cube.001",
            "primitives" : [
                {
                    "attributes" : {
                        "POSITION" : 0,
                        "NORMAL" : 1,
                        "TEXCOORD_0" : 2
                    },
                    "indices" : 3,
                    "material" : 0
                },
                {
                    "attributes" : {
                        "POSITION" : 4,
                        "NORMAL" : 5,
                        "TEXCOORD_0" : 6
                    },
                    "indices" : 7,
                    "material" : 1
                },
                {
                    "attributes" : {
                        "POSITION" : 8,
                        "NORMAL" : 9,
                        "TEXCOORD_0" : 10
                    },
                    "indices" : 11,
                    "material" : 2
                }
            ]
        },
        {
            "name" : "BezierCircle",
            "primitives" : [
                {
                    "attributes" : {
                        "POSITION" : 12,
                        "NORMAL" : 13
                    },
                    "indices" : 14,
                    "material" : 3
                }
            ]
        },
        {
            "name" : "BezierCircle.001",
            "primitives" : [
                {
                    "attributes" : {
                        "POSITION" : 15,
                        "NORMAL" : 16
                    },
                    "indices" : 14,
                    "material" : 3
                }
            ]
        },
        {
            "name" : "BezierCircle.002",
            "primitives" : [
                {
                    "attributes" : {
                        "POSITION" : 17,
                        "NORMAL" : 18
                    },
                    "indices" : 14,
                    "material" : 3
                }
            ]
        }
    ],
    "accessors" : [
        {
            "bufferView" : 0,
            "componentType" : 5126,
            "count" : 2819,
            "max" : [
                1.0720248222351074,
                2.3567628860473633,
                0.9948685169219971
            ],
            "min" : [
                -1.0720248222351074,
                -1.0026063919067383,
                -0.9948685169219971
            ],
            "type" : "VEC3"
        },
        {
            "bufferView" : 1,
            "componentType" : 5126,
            "count" : 2819,
            "type" : "VEC3"
        },
        {
            "bufferView" : 2,
            "componentType" : 5126,
            "count" : 2819,
            "type" : "VEC2"
        },
        {
            "bufferView" : 3,
            "componentType" : 5123,
            "count" : 12288,
            "type" : "SCALAR"
        },
        {
            "bufferView" : 4,
            "componentType" : 5126,
            "count" : 3187,
            "max" : [
                1.0456687211990356,
                3.4551286697387695,
                0.967926025390625
            ],
            "min" : [
                -1.0456687211990356,
                -0.9695501327514648,
                -0.967926025390625
            ],
            "type" : "VEC3"
        },
        {
            "bufferView" : 5,
            "componentType" : 5126,
            "count" : 3187,
            "type" : "VEC3"
        },
        {
            "bufferView" : 6,
            "componentType" : 5126,
            "count" : 3187,
            "type" : "VEC2"
        },
        {
            "bufferView" : 7,
            "componentType" : 5123,
            "count" : 16896,
            "type" : "SCALAR"
        },
        {
            "bufferView" : 8,
            "componentType" : 5126,
            "count" : 6213,
            "max" : [
                0.5641338229179382,
                -0.9728885889053345,
                0.5524441599845886
            ],
            "min" : [
                -0.5641338229179382,
                -1.2510218620300293,
                -0.5524441599845886
            ],
            "type" : "VEC3"
        },
        {
            "bufferView" : 9,
            "componentType" : 5126,
            "count" : 6213,
            "type" : "VEC3"
        },
        {
            "bufferView" : 10,
            "componentType" : 5126,
            "count" : 6213,
            "type" : "VEC2"
        },
        {
            "bufferView" : 11,
            "componentType" : 5123,
            "count" : 12288,
            "type" : "SCALAR"
        },
        {
            "bufferView" : 12,
            "componentType" : 5126,
            "count" : 2175,
            "max" : [
                0.31429535150527954,
                0.125,
                0.2257527858018875
            ],
            "min" : [
                -0.9142387509346008,
                -0.125,
                -1.7925361394882202
            ],
            "type" : "VEC3"
        },
        {
            "bufferView" : 13,
            "componentType" : 5126,
            "count" : 2175,
            "type" : "VEC3"
        },
        {
            "bufferView" : 14,
            "componentType" : 5123,
            "count" : 9204,
            "type" : "SCALAR"
        },
        {
            "bufferView" : 15,
            "componentType" : 5126,
            "count" : 2175,
            "max" : [
                0.31429535150527954,
                0.125,
                0.2257527858018875
            ],
            "min" : [
                -0.9142387509346008,
                -0.125,
                -1.7925361394882202
            ],
            "type" : "VEC3"
        },
        {
            "bufferView" : 16,
            "componentType" : 5126,
            "count" : 2175,
            "type" : "VEC3"
        },
        {
            "bufferView" : 17,
            "componentType" : 5126,
            "count" : 2175,
            "max" : [
                0.31429535150527954,
                0.125,
                0.2257527858018875
            ],
            "min" : [
                -0.9142387509346008,
                -0.125,
                -1.7925361394882202
            ],
            "type" : "VEC3"
        },
        {
            "bufferView" : 18,
            "componentType" : 5126,
            "count" : 2175,
            "type" : "VEC3"
        }
    ],
    "bufferViews" : [
        {
            "buffer" : 0,
            "byteLength" : 33828,
            "byteOffset" : 0
        },
        {
            "buffer" : 0,
            "byteLength" : 33828,
            "byteOffset" : 33828
        },
        {
            "buffer" : 0,
            "byteLength" : 22552,
            "byteOffset" : 67656
        },
        {
            "buffer" : 0,
            "byteLength" : 24576,
            "byteOffset" : 90208
        },
        {
            "buffer" : 0,
            "byteLength" : 38244,
            "byteOffset" : 114784
        },
        {
            "buffer" : 0,
            "byteLength" : 38244,
            "byteOffset" : 153028
        },
        {
            "buffer" : 0,
            "byteLength" : 25496,
            "byteOffset" : 191272
        },
        {
            "buffer" : 0,
            "byteLength" : 33792,
            "byteOffset" : 216768
        },
        {
            "buffer" : 0,
            "byteLength" : 74556,
            "byteOffset" : 250560
        },
        {
            "buffer" : 0,
            "byteLength" : 74556,
            "byteOffset" : 325116
        },
        {
            "buffer" : 0,
            "byteLength" : 49704,
            "byteOffset" : 399672
        },
        {
            "buffer" : 0,
            "byteLength" : 24576,
            "byteOffset" : 449376
        },
        {
            "buffer" : 0,
            "byteLength" : 26100,
            "byteOffset" : 473952
        },
        {
            "buffer" : 0,
            "byteLength" : 26100,
            "byteOffset" : 500052
        },
        {
            "buffer" : 0,
            "byteLength" : 18408,
            "byteOffset" : 526152
        },
        {
            "buffer" : 0,
            "byteLength" : 26100,
            "byteOffset" : 544560
        },
        {
            "buffer" : 0,
            "byteLength" : 26100,
            "byteOffset" : 570660
        },
        {
            "buffer" : 0,
            "byteLength" : 26100,
            "byteOffset" : 596760
        },
        {
            "buffer" : 0,
            "byteLength" : 26100,
            "byteOffset" : 622860
        }
    ],
    "buffers" : [
        {
            "byteLength" : 648960,
            "uri" : "data:application/octet-stream;base64,"
        }
    ]
}
